<?xml version="1.0" encoding="utf-8"?>
<!-- Generator: Adobe Illustrator 16.0.0, SVG Export Plug-In . SVG Version: 6.00 Build 0)  -->
<!DOCTYPE svg PUBLIC "-//W3C//DTD SVG 1.1//EN" "http://www.w3.org/Graphics/SVG/1.1/DTD/svg11.dtd">
<svg xmlns="http://www.w3.org/2000/svg" xmlns:xlink="http://www.w3.org/1999/xlink" version="1.1" id="Layer_1" x="0px" y="0px" width="75px" height="75px" viewBox="0 0 75 75" xml:space="preserve">
<path fill="#168363" d="M71.449,15.93c1.602,0,2.898-1.297,2.898-2.899c0-1.601-1.297-2.898-2.898-2.898  c-1.371,0-2.516,0.957-2.812,2.238L54.355,15.27c-0.688-1.356-1.977-2.344-3.52-2.625l-0.227-6.293  c1.184-0.504,2.012-1.676,2.012-3.043c0-1.829-1.48-3.309-3.31-3.309c-1.827,0-3.308,1.48-3.308,3.309  c0,1.566,1.09,2.867,2.547,3.211l0.223,6.191c-1.227,0.305-2.273,1.062-2.945,2.09L34.121,7.723  c0.055-0.223,0.094-0.453,0.094-0.692c0-1.601-1.297-2.898-2.899-2.898c-1.597,0-2.898,1.297-2.898,2.898  c0,1.602,1.297,2.899,2.898,2.899c0.606,0,1.164-0.188,1.629-0.5l12.137,7.34c-0.035,0.238-0.059,0.484-0.059,0.73  c0,0.723,0.16,1.406,0.438,2.023L27.016,37.922c-0.852-0.695-1.938-1.113-3.125-1.113c-1.008,0-1.942,0.304-2.723,0.82l-8.75-8.75  c0.461-0.656,0.738-1.453,0.738-2.317c0-2.226-1.804-4.035-4.035-4.035c-2.226,0-4.035,1.805-4.035,4.035  c0,2.227,1.809,4.036,4.035,4.036c0.609,0,1.184-0.145,1.699-0.387l8.899,8.898c-0.485,0.766-0.77,1.668-0.77,2.637  c0,0.371,0.047,0.734,0.121,1.082L6.461,47.066c-0.52-0.781-1.406-1.297-2.414-1.297c-1.602,0-2.899,1.297-2.899,2.898  s1.297,2.894,2.899,2.894c1.449,0,2.641-1.069,2.851-2.46l13.047-4.383c0.75,0.988,1.86,1.688,3.137,1.895l-0.004,7.414  c-1.48,0.328-2.586,1.645-2.586,3.227c0,1.828,1.481,3.308,3.309,3.308c1.828,0,3.308-1.479,3.308-3.308  c0-1.348-0.808-2.504-1.964-3.02l0.003-7.719c1.422-0.379,2.59-1.375,3.204-2.684l16.687,3.359C45.027,47.363,45,47.539,45,47.719  c0,2.121,1.723,3.843,3.844,3.843c0.281,0,0.551-0.034,0.816-0.089l2.73,6.742c-0.789,0.629-1.305,1.582-1.305,2.668  c0,0.556,0.145,1.074,0.383,1.535l-5.539,5.809c-0.023-0.008-0.047-0.027-0.074-0.035c-1.504-0.543-3.164,0.238-3.703,1.747  c-0.539,1.503,0.238,3.163,1.746,3.702c1.508,0.543,3.163-0.242,3.707-1.746c0.277-0.777,0.199-1.59-0.141-2.277l5.461-5.727  c0.477,0.25,1.008,0.402,1.578,0.402c0.895,0,1.703-0.352,2.316-0.918l10.27,6.902c-0.102,0.297-0.172,0.609-0.172,0.945  c0,1.602,1.297,2.895,2.894,2.895c1.603,0,2.899-1.297,2.899-2.895c0-1.602-1.297-2.898-2.899-2.898c-0.5,0-0.964,0.141-1.378,0.364  l-10.59-7.118c0.047-0.223,0.074-0.457,0.074-0.695c0-1.887-1.527-3.414-3.414-3.414c-0.059,0-0.113,0.016-0.172,0.016l-2.816-7.004  c0.723-0.699,1.18-1.676,1.18-2.762c0-2.121-1.723-3.844-3.844-3.844c-1.195,0-2.25,0.559-2.953,1.414l-17.062-3.488  c0-0.02,0.004-0.035,0.004-0.055c0-0.793-0.192-1.539-0.524-2.199l18.375-18.355c0.87,0.773,2.016,1.246,3.273,1.246  c1.016,0,1.957-0.309,2.742-0.832l9.527,9.527c-0.184,0.414-0.293,0.867-0.293,1.348c0,1.828,1.484,3.308,3.309,3.308  c1.828,0,3.309-1.48,3.309-3.308c0-1.828-1.48-3.309-3.309-3.309c-0.59,0-1.137,0.168-1.617,0.438l-9.496-9.481  c0.477-0.758,0.758-1.656,0.758-2.617c0-0.078-0.008-0.152-0.012-0.227l14.043-2.851C69.418,15.32,70.359,15.93,71.449,15.93z"/>
</svg>
